<svg xmlns="http://www.w3.org/2000/svg"  viewBox="0 0 32 32" width="32px" height="32px"><path d="M 6 4 L 6 6 L 26 6 L 26 4 L 6 4 z M 26 6 L 26 26 L 28 26 L 28 6 L 26 6 z M 26 26 L 6 26 L 6 28 L 26 28 L 26 26 z M 6 26 L 6 20 L 8 20 L 8 22 L 10 22 L 10 24 L 12 24 L 12 22 L 15 22 L 15 20 L 18 20 L 18 18 L 22 18 L 22 16 L 16 16 L 16 10 L 14 10 L 14 14 L 12 14 L 12 16 L 10 16 L 10 18 L 8 18 L 8 16 L 6 16 L 6 6 L 4 6 L 4 16 L 4 18 L 4 26 L 6 26 z M 16 10 L 22 10 L 22 8 L 16 8 L 16 10 z M 22 10 L 22 16 L 24 16 L 24 10 L 22 10 z M 18 12 L 18 14 L 20 14 L 20 12 L 18 12 z"/></svg>